<svg xmlns="http://www.w3.org/2000/svg" xmlns:xlink="http://www.w3.org/1999/xlink" viewBox="0 0 21 16" style="background-color:#ffffff00" version="1.1" xml:space="preserve" x="0px" y="0px" width="21px" height="16px"><g><g opacity="0.5608"><path d="M 15.4 15.4 C 15 15.4 14.3 15.4 13.5 15.4 C 13.5 15.3 13.5 15.2 13.5 15.1 L 13.5 13.5 C 14.3 13.5 15 13.5 15.4 13.5 C 17.4 13.5 19.1 11.8 19.1 9.7 C 19.1 7.6 17.4 5.9 15.4 5.9 C 14.8 5.9 14.3 6.1 13.8 6.3 L 13 5.6 C 12.2 3.6 10.2 2.2 7.9 2.2 C 4.8 2.2 2.3 4.7 2.3 7.8 C 2.3 10.9 4.8 13.5 7.9 13.5 L 7.9 15.1 C 7.9 15.2 7.9 15.3 7.9 15.4 C 7.9 15.4 7.9 15.4 7.9 15.4 C 3.8 15.4 0.4 12 0.4 7.8 C 0.4 3.7 3.8 0.3 7.9 0.3 C 10.7 0.3 13.1 1.9 14.4 4.2 C 14.7 4.1 15 4.1 15.4 4.1 C 18.5 4.1 21 6.6 21 9.7 C 21 12.8 18.5 15.4 15.4 15.4 ZM 7.4 10.5 C 7 10.2 7 9.6 7.4 9.2 L 10 6.5 C 10.4 6.2 11 6.2 11.4 6.5 L 14 9.2 C 14.4 9.6 14.4 10.2 14 10.5 C 13.6 10.9 13 10.9 12.7 10.5 L 11.6 9.5 L 11.6 15.1 C 11.6 15.6 11.2 16 10.7 16 C 10.2 16 9.8 15.6 9.8 15.1 L 9.8 9.5 L 8.7 10.5 C 8.4 10.9 7.8 10.9 7.4 10.5 Z" fill="#000000"/></g></g></svg>